<svg width="24" height="33" viewBox="0 0 24 33" fill="none" xmlns="http://www.w3.org/2000/svg">
<path d="M12 9.76292e-10C8.88517 0.00256576 5.89796 1.22065 3.69078 3.3882C1.4836 5.55575 0.235821 8.49662 0.219971 11.5685C0.219971 16.1742 2.83997 20.0304 4.75997 22.8411L5.10997 23.354C7.02025 26.0845 9.06954 28.7178 11.25 31.2438L12.01 32.1216L12.77 31.2438C14.9501 28.7176 16.9994 26.0843 18.91 23.354L19.26 22.8313C21.17 20.0205 23.79 16.1742 23.79 11.5685C23.7741 8.49492 22.525 5.55255 20.3156 3.38472C18.1063 1.21689 15.1165 -3.98005e-05 12 9.76292e-10ZM12 16.7659C10.7025 16.7659 9.43422 16.3865 8.35543 15.6756C7.27665 14.9647 6.43583 13.9543 5.93932 12.7721C5.44281 11.5899 5.3129 10.2891 5.56602 9.03409C5.81914 7.7791 6.44392 6.62631 7.36135 5.72151C8.27878 4.81671 9.44767 4.20053 10.7202 3.95089C11.9927 3.70126 13.3117 3.82938 14.5104 4.31906C15.7091 4.80873 16.7336 5.63797 17.4544 6.7019C18.1752 7.76583 18.56 9.01668 18.56 10.2963C18.56 12.0121 17.8688 13.6577 16.6386 14.871C15.4084 16.0843 13.7398 16.7659 12 16.7659Z" fill="black"/>
</svg>
