<svg width="34" height="27" viewBox="0 0 34 27" fill="none" xmlns="http://www.w3.org/2000/svg">
<path d="M0.75 1C0.75 0.447716 1.19772 0 1.75 0H32.4012C32.9534 0 33.4012 0.447715 33.4012 1V2.24C33.4012 2.79228 32.9534 3.24 32.4012 3.24H1.75C1.19772 3.24 0.75 2.79229 0.75 2.24V1Z" fill="#10133A"/>
<path d="M0.75 12.8799C0.75 12.3276 1.19772 11.8799 1.75 11.8799H32.4012C32.9534 11.8799 33.4012 12.3276 33.4012 12.8799V14.1199C33.4012 14.6722 32.9534 15.1199 32.4012 15.1199H1.75C1.19772 15.1199 0.75 14.6722 0.75 14.1199V12.8799Z" fill="#10133A"/>
<path d="M0.75 24.76C0.75 24.2077 1.19772 23.76 1.75 23.76H32.4012C32.9534 23.76 33.4012 24.2077 33.4012 24.76V26C33.4012 26.5523 32.9534 27 32.4012 27H1.75C1.19772 27 0.75 26.5523 0.75 26V24.76Z" fill="#10133A"/>
</svg>
