<svg width="23" height="22" viewBox="0 0 23 22" fill="none" xmlns="http://www.w3.org/2000/svg">
<path fill-rule="evenodd" clip-rule="evenodd" d="M21.9774 3.92903C22.3001 4.76012 22.4713 5.63938 22.4835 6.52746C22.5509 7.64445 22.5512 8.00975 22.5536 10.8372L22.5536 10.8765C22.5536 13.7411 22.5379 14.0988 22.486 15.2268C22.4678 16.105 22.2975 16.9704 21.9798 17.7912C21.6996 18.492 21.2721 19.1285 20.7245 19.6601C20.1769 20.1917 19.5212 20.6067 18.7992 20.8786C17.954 21.1865 17.061 21.3527 16.1585 21.3699C15.0048 21.4356 14.6267 21.4356 11.6768 21.4356C8.7269 21.4356 8.35847 21.4203 7.19517 21.3699C6.29083 21.341 5.3982 21.1626 4.5557 20.8423C3.8334 20.5709 3.17735 20.1563 2.62948 19.6249C2.0816 19.0934 1.65395 18.457 1.37385 17.756C1.05614 16.9341 0.885816 16.0687 0.867696 15.1916C0.800049 14.0706 0.800049 13.7048 0.800049 10.8414C0.800049 7.97793 0.815753 7.6203 0.867696 6.49111C0.884757 5.61532 1.05594 4.74882 1.37385 3.92903C1.65348 3.2279 2.08082 2.59115 2.62851 2.05952C3.1762 1.52788 3.83218 1.11308 4.55449 0.841641C5.3993 0.533803 6.29178 0.367281 7.19396 0.34916C8.34759 0.284668 8.7257 0.284668 11.6756 0.284668C14.6255 0.284668 14.994 0.298739 16.1561 0.34916C17.0587 0.367148 17.9515 0.533673 18.7967 0.841641C19.5189 1.11327 20.1748 1.52814 20.7225 2.05975C21.2702 2.59136 21.6976 3.22801 21.9774 3.92903ZM6.08381 10.8355C6.08381 13.8303 8.58315 16.2563 11.6684 16.2563C13.1495 16.2563 14.5699 15.6852 15.6172 14.6686C16.6646 13.652 17.2529 12.2732 17.2529 10.8355C17.2529 9.39781 16.6646 8.019 15.6172 7.0024C14.5699 5.9858 13.1495 5.41468 11.6684 5.41468C8.58315 5.41468 6.08381 7.84074 6.08381 10.8355ZM16.173 5.21417C16.173 5.91303 16.754 6.47821 17.4752 6.47821C18.194 6.47821 18.7762 5.91303 18.7762 5.21417C18.7762 5.04825 18.7425 4.88396 18.6771 4.73067C18.6117 4.57738 18.5158 4.4381 18.395 4.32078C18.2741 4.20346 18.1306 4.11039 17.9727 4.0469C17.8148 3.9834 17.6455 3.95072 17.4746 3.95072C17.3037 3.95072 17.1344 3.9834 16.9765 4.0469C16.8186 4.11039 16.6751 4.20346 16.5542 4.32078C16.4333 4.4381 16.3375 4.57738 16.2721 4.73067C16.2066 4.88396 16.173 5.04825 16.173 5.21417ZM15.296 10.834C15.296 12.7787 13.6719 14.3552 11.6684 14.3552C9.66491 14.3552 8.04077 12.7787 8.04077 10.834C8.04077 8.88926 9.66491 7.31274 11.6684 7.31274C13.6719 7.31274 15.296 8.88926 15.296 10.834Z" fill="#10133A"/>
</svg>
