<svg width="24" height="24" viewBox="0 0 24 24" fill="none" xmlns="http://www.w3.org/2000/svg">
<path d="M2.09666 0.601807H22.7244C23.4347 0.601807 24 1.15057 24 1.84005V21.877C24 22.5524 23.4347 23.1152 22.7244 23.1152H16.81V14.3913H19.8252L20.2746 11.0002H16.81V8.83328C16.81 7.84831 17.0999 7.17291 18.5495 7.17291H20.405V4.1336C20.0861 4.09139 18.9844 4.00696 17.7088 4.00696C15.027 4.00696 13.2005 5.5829 13.2005 8.49558V11.0002H10.1709V14.3913H13.2005V23.1152H2.09666C1.75699 23.1153 1.43101 22.9852 1.18948 22.7534C0.947943 22.5216 0.810335 22.2067 0.806519 21.877V1.84005C0.806519 1.15057 1.38636 0.601807 2.09666 0.601807Z" fill="#10133A"/>
</svg>
