<svg width="25" height="24" viewBox="0 0 25 24" fill="none" xmlns="http://www.w3.org/2000/svg">
<path d="M16.2517 0.133301H8.83946C2.06985 0.133301 0.459595 1.69634 0.459595 8.25573V15.4506C0.459595 22.0206 2.05777 23.5848 8.82738 23.5848H16.2396C23.0081 23.5848 24.6195 22.0335 24.6195 15.4624V8.26745C24.6195 1.69634 23.0213 0.133301 16.2517 0.133301ZM19.9639 16.8659H18.2014C17.5346 16.8659 17.3341 16.3418 16.1382 15.181C15.0945 14.2042 14.6535 14.0822 14.389 14.0822C14.0242 14.0822 13.9239 14.1796 13.9239 14.6685V16.207C13.9239 16.6232 13.785 16.8671 12.6652 16.8671C11.5784 16.7962 10.5245 16.4757 9.59035 15.932C8.65618 15.3883 7.86844 14.637 7.29202 13.7399C5.92356 12.0865 4.97139 10.1461 4.51121 8.0728C4.51121 7.81601 4.61148 7.58384 5.11521 7.58384H6.87647C7.32947 7.58384 7.49255 7.77966 7.67012 8.2311C8.52538 10.6747 9.98464 12.7995 10.5766 12.7995C10.8037 12.7995 10.9027 12.7021 10.9027 12.1522V9.63585C10.8278 8.4879 10.1997 8.39057 10.1997 7.97548C10.2077 7.866 10.2594 7.76387 10.3438 7.69075C10.4281 7.61764 10.5385 7.57929 10.6515 7.58384H13.4202C13.7983 7.58384 13.9239 7.76676 13.9239 8.20648V11.6023C13.9239 11.9693 14.087 12.0912 14.2006 12.0912C14.4277 12.0912 14.6028 11.9693 15.0184 11.5659C15.9109 10.5094 16.6401 9.33224 17.1831 8.07163C17.2386 7.92021 17.3436 7.79057 17.4821 7.7025C17.6206 7.61442 17.785 7.57275 17.9502 7.58384H19.7126C20.2405 7.58384 20.3529 7.84063 20.2405 8.20648C19.5997 9.6 18.8067 10.9228 17.8753 12.1522C17.6856 12.4336 17.6095 12.5802 17.8753 12.9097C18.0504 13.1665 18.6677 13.6672 19.0833 14.1432C19.6872 14.7279 20.1886 15.4044 20.5679 16.146C20.7189 16.622 20.4664 16.8671 19.9639 16.8671V16.8659Z" fill="#10133A"/>
</svg>
