<svg width="27" height="26" viewBox="0 0 27 26" fill="none" xmlns="http://www.w3.org/2000/svg">
<path d="M17.3433 18.2254L19.5833 16.0163C19.885 15.7224 20.2667 15.5213 20.6821 15.4372C21.0975 15.3532 21.5287 15.3899 21.9233 15.5429L24.6533 16.6179C25.0521 16.7775 25.3941 17.05 25.6361 17.401C25.8781 17.752 26.0094 18.1658 26.0133 18.5903V23.5214C26.011 23.8101 25.9495 24.0954 25.8324 24.3601C25.7153 24.6248 25.5452 24.8633 25.3321 25.0614C25.1191 25.2596 24.8677 25.4131 24.5929 25.5128C24.3181 25.6126 24.0257 25.6564 23.7333 25.6418C4.60332 24.4682 0.743318 8.4914 0.0133175 2.37683C-0.0205696 2.07656 0.0103921 1.77262 0.104166 1.485C0.197939 1.19738 0.352399 0.932603 0.557385 0.708084C0.76237 0.483564 1.01323 0.304393 1.29348 0.182357C1.57372 0.0603209 1.87698 -0.00181382 2.18332 4.03059e-05H7.01332C7.44433 0.00129851 7.8651 0.129696 8.22151 0.368719C8.57793 0.607741 8.85369 0.946457 9.01332 1.3413L10.1033 4.03368C10.2636 4.42134 10.3045 4.84696 10.2209 5.2574C10.1373 5.66783 9.93292 6.04488 9.63332 6.34144L7.39332 8.55057C7.39332 8.55057 8.68332 17.1603 17.3433 18.2254Z" fill="#10133A"/>
</svg>
